<?xml version="1.0" standalone="no"?>
<!DOCTYPE svg PUBLIC "-//W3C//DTD SVG 20010904//EN"
 "http://www.w3.org/TR/2001/REC-SVG-20010904/DTD/svg10.dtd">
<svg version="1.0" xmlns="http://www.w3.org/2000/svg"
 width="283.000000pt" height="178.000000pt" viewBox="0 0 283.000000 178.000000"
 preserveAspectRatio="xMidYMid meet">
<metadata>
Created by potrace 1.16, written by Peter Selinger 2001-2019
</metadata>
<g transform="translate(0.000000,178.000000) scale(0.100000,-0.100000)"
fill="#000000" stroke="none">
<path d="M1144 1367 c-70 -36 -104 -64 -104 -84 0 -7 -4 -13 -9 -13 -17 0 -30
-64 -29 -143 0 -63 3 -77 14 -73 8 3 14 3 14 1 0 -3 -32 -21 -70 -40 -78 -39
-143 -93 -166 -137 -10 -19 -14 -56 -13 -113 1 -78 3 -87 27 -105 13 -11 35
-20 48 -20 12 0 26 -5 29 -10 8 -13 106 -63 111 -57 3 3 7 20 10 38 6 32 4 35
-41 57 -32 16 -45 27 -41 37 3 8 2 15 -3 15 -4 0 -7 10 -7 23 1 15 -8 26 -31
37 -37 17 -40 34 -15 72 19 29 90 87 107 88 6 0 24 30 40 66 17 36 36 70 43
76 15 13 16 32 0 22 -8 -5 -9 -2 -4 12 10 26 24 104 19 104 -2 0 5 14 17 30
12 17 16 30 10 30 -6 0 -8 5 -4 11 5 8 8 8 14 0 3 -7 13 -9 21 -6 9 3 24 -3
34 -15 19 -21 64 -26 94 -10 13 6 24 5 37 -5 11 -8 26 -15 35 -15 11 0 15 -7
12 -22 -4 -26 39 -64 58 -52 8 4 7 9 -2 15 -12 7 -11 11 3 26 17 16 17 16 13
-4 -6 -35 28 -51 62 -30 7 4 10 1 8 -10 -3 -23 14 -45 29 -36 6 3 7 2 3 -3 -5
-5 -12 -9 -15 -9 -4 0 -13 -4 -20 -8 -9 -6 0 -23 33 -61 25 -29 45 -58 45 -64
0 -6 12 -19 28 -27 15 -9 19 -14 9 -11 -15 5 -16 3 -6 -17 l12 -22 10 23 c6
12 14 22 19 22 5 0 2 -10 -6 -22 -19 -26 -21 -42 -4 -32 6 4 8 3 5 -3 -7 -11
51 -146 65 -151 4 -2 6 -7 3 -12 -9 -15 14 -60 37 -71 20 -8 20 -9 2 -6 -15 3
-20 -1 -20 -17 1 -17 -9 -23 -49 -33 -142 -36 -372 -36 -526 1 l-57 13 -6 -36
c-3 -19 -4 -36 -3 -37 1 -1 38 -10 82 -20 109 -24 389 -24 493 -1 40 10 77 17
81 17 5 0 11 -21 14 -47 7 -54 -14 -124 -46 -161 -26 -29 -94 -30 -156 -2 -23
11 -48 17 -54 13 -5 -3 -7 -1 -3 5 3 6 2 13 -4 17 -5 3 -10 2 -10 -3 0 -5 -11
-7 -25 -4 -13 2 -32 1 -42 -2 -15 -6 -14 -8 5 -22 12 -8 27 -12 34 -8 7 4 8 3
4 -4 -9 -15 6 -16 21 -1 8 8 16 8 30 0 16 -11 16 -11 -4 -6 -12 3 -24 1 -27
-4 -7 -11 33 -43 46 -35 4 3 8 0 8 -6 0 -7 8 -9 21 -5 13 4 19 3 15 -3 -8 -13
63 -24 105 -16 49 9 100 45 93 66 -2 9 1 20 7 24 8 5 10 3 4 -7 -4 -8 0 -7 11
3 13 13 18 31 17 68 0 28 3 53 8 56 13 8 11 78 -2 91 -9 9 6 21 57 46 84 43
129 83 154 139 25 56 25 88 -2 144 -22 49 -116 128 -165 140 -17 5 -22 11 -17
23 15 37 15 50 0 79 -20 38 -58 46 -92 20 l-24 -20 25 -30 c15 -17 39 -56 55
-87 20 -41 39 -62 69 -79 22 -13 53 -39 67 -58 22 -29 26 -41 21 -77 -6 -46
-40 -82 -115 -124 l-40 -23 -12 33 c-14 38 -28 72 -45 112 -7 17 -21 49 -30
73 -13 31 -21 39 -28 30 -6 -9 -7 -6 -4 9 3 14 -3 33 -14 47 -10 13 -19 27
-19 31 0 4 -9 20 -21 36 -23 32 -43 30 -33 -4 6 -21 6 -21 -9 -3 -12 17 -13
22 -1 34 12 12 11 17 -11 34 -14 11 -22 24 -19 29 8 14 -26 50 -39 42 -5 -3
-7 -1 -4 4 9 14 -32 65 -45 57 -6 -4 -8 -2 -5 3 10 17 -15 30 -51 27 -18 -1
-34 2 -37 6 -2 3 10 6 27 5 l32 -2 -30 24 c-16 13 -46 33 -67 44 -21 11 -43
31 -49 44 -6 13 -24 29 -41 35 -16 5 -30 10 -31 9 -1 0 -29 -15 -62 -32z"/>
<path d="M1352 1000 c-48 -11 -115 -58 -108 -76 3 -8 2 -12 -4 -9 -18 11 -40
-53 -40 -116 0 -49 6 -72 25 -106 26 -44 40 -53 47 -31 3 7 7 5 11 -6 4 -10 3
-15 -3 -11 -6 3 -10 3 -10 -2 0 -11 67 -42 108 -49 18 -4 52 -1 76 6 53 15
120 66 112 87 -3 8 -2 11 4 8 29 -18 49 124 26 180 -24 57 -74 104 -129 120
-55 16 -66 17 -115 5z"/>
</g>
</svg>
